<svg id="Layer_1" data-name="Layer 1" xmlns="http://www.w3.org/2000/svg" viewBox="0 0 512 512"><defs><style>.cls-1{fill:#f4536a;}.cls-2{fill:#ee374b;}.cls-3{fill:#74c666;}.cls-4{fill:#6b287c;}</style></defs><title>christmas-card-filled</title><path class="cls-1" d="M138.67,118.34H373.33A26.67,26.67,0,0,1,400,145V470.34a0,0,0,0,1,0,0H112a0,0,0,0,1,0,0V145A26.67,26.67,0,0,1,138.67,118.34Z"/><path class="cls-2" d="M373.33,118.34H336A26.67,26.67,0,0,1,362.67,145V470.34H400V145A26.67,26.67,0,0,0,373.33,118.34Z"/><path class="cls-2" d="M138.67,118.34H373.33a26.76,26.76,0,0,1,5.33.54V63a21.33,21.33,0,0,0-28.32-20.16L131.79,118.61a5.29,5.29,0,0,0-2.11,1.39A26.43,26.43,0,0,1,138.67,118.34Z"/><polygon class="cls-3" points="256 289.01 197.33 358.34 314.67 358.34 256 289.01"/><polygon class="cls-3" points="256 246.34 208 305.01 304 305.01 256 246.34"/><polygon class="cls-3" points="256 209.01 218.67 257.01 293.33 257.01 256 209.01"/><path class="cls-4" d="M112,219.67A10.67,10.67,0,0,0,122.67,209V145a16,16,0,0,1,16-16H373.33a16,16,0,0,1,16,16V374.55a10.67,10.67,0,0,0,21.33,0V145a37.38,37.38,0,0,0-21.33-33.72V63a32,32,0,0,0-42.48-30.23L128.28,108.54a15.69,15.69,0,0,0-3.72,1.91A37.39,37.39,0,0,0,101.33,145v64A10.67,10.67,0,0,0,112,219.67ZM353.84,52.91A10.67,10.67,0,0,1,368,63v44.69H195.9Z"/><path class="cls-4" d="M112,273a10.67,10.67,0,0,0,10.67-10.67V245.91a10.67,10.67,0,0,0-21.33,0v16.43A10.67,10.67,0,0,0,112,273Z"/><path class="cls-4" d="M21.33,459.67H10.67a10.67,10.67,0,1,0,0,21.33H21.33a10.67,10.67,0,0,0,0-21.33Z"/><path class="cls-4" d="M442.67,459.67h-32V411.46a10.67,10.67,0,1,0-21.33,0v48.21H122.67V299.25a10.67,10.67,0,1,0-21.33,0V459.67H58.67a10.67,10.67,0,0,0,0,21.33h384a10.67,10.67,0,0,0,0-21.33Z"/><path class="cls-4" d="M501.33,459.67H480A10.67,10.67,0,0,0,480,481h21.33a10.67,10.67,0,0,0,0-21.33Z"/><path class="cls-4" d="M324.34,362.83a10.67,10.67,0,0,0-1.54-11.38l-30.27-35.78H304a10.67,10.67,0,0,0,8.26-17.42l-25-30.58h6.1a10.67,10.67,0,0,0,8.42-17.21l-37.33-48c-4-5.2-12.8-5.2-16.84,0l-37.33,48a10.67,10.67,0,0,0,8.42,17.21h6.1l-25,30.58A10.67,10.67,0,0,0,208,315.67h11.46l-30.27,35.78A10.66,10.66,0,0,0,197.33,369h48v10.67a10.67,10.67,0,1,0,21.33,0V369h48A10.68,10.68,0,0,0,324.34,362.83ZM256,226.38l15.53,20H240.47Zm3.67,41.29,21.82,26.67h-51l21.82-26.67Zm-39.34,80,27.08-32h17.18l27.08,32Z"/><circle class="cls-4" cx="170.67" cy="166.34" r="10.67"/><circle class="cls-4" cx="213.33" cy="166.34" r="10.67"/><circle class="cls-4" cx="256" cy="166.34" r="10.67"/><circle class="cls-4" cx="298.67" cy="166.34" r="10.67"/><circle class="cls-4" cx="341.33" cy="166.34" r="10.67"/><circle class="cls-4" cx="170.67" cy="422.34" r="10.67"/><circle class="cls-4" cx="213.33" cy="422.34" r="10.67"/><circle class="cls-4" cx="256" cy="422.34" r="10.67"/><circle class="cls-4" cx="298.67" cy="422.34" r="10.67"/><circle class="cls-4" cx="341.33" cy="422.34" r="10.67"/></svg>