<svg id="Layer_1" data-name="Layer 1" xmlns="http://www.w3.org/2000/svg" viewBox="0 0 512 512"><defs><style>.cls-1{fill:#f0f7ff;}.cls-2{fill:#74c666;}.cls-3{fill:#54af47;}.cls-4{fill:#e1eaf4;}.cls-5{fill:#f4536a;}.cls-6{fill:#ffc84d;}.cls-7{fill:#6b287c;}</style></defs><title>phone-filled</title><path class="cls-1" d="M186.67,58.67H325.33A37.33,37.33,0,0,1,362.67,96v37.33a0,0,0,0,1,0,0H149.33a0,0,0,0,1,0,0V96A37.33,37.33,0,0,1,186.67,58.67Z"/><rect class="cls-2" x="149.33" y="133.33" width="213.33" height="245.33"/><polygon class="cls-3" points="362.67 378.67 362.67 133.33 149.33 378.67 362.67 378.67"/><path class="cls-1" d="M149.33,378.67H362.67a0,0,0,0,1,0,0V416a37.33,37.33,0,0,1-37.33,37.33H186.67A37.33,37.33,0,0,1,149.33,416V378.67A0,0,0,0,1,149.33,378.67Z"/><path class="cls-4" d="M325.33,58.67H288A37.33,37.33,0,0,1,325.33,96v37.33h37.33V96A37.33,37.33,0,0,0,325.33,58.67Z"/><path class="cls-4" d="M325.33,378.67V416A37.33,37.33,0,0,1,288,453.33h37.33A37.33,37.33,0,0,0,362.67,416V378.67Z"/><path class="cls-5" d="M421.33,336H304a16,16,0,0,1-16-16V256H437.33v64A16,16,0,0,1,421.33,336Z"/><rect class="cls-5" x="272" y="213.33" width="181.33" height="42.67" rx="5.33" ry="5.33"/><rect class="cls-6" x="341.33" y="213.33" width="42.67" height="122.67"/><path class="cls-6" d="M362.67,213.33H341.33A21.33,21.33,0,1,1,362.67,192Zm0-21.33A21.33,21.33,0,1,1,384,213.33H362.67Z"/><path class="cls-7" d="M149.33,240.21A10.67,10.67,0,0,0,160,229.55V213.12a10.67,10.67,0,0,0-21.33,0v16.43A10.67,10.67,0,0,0,149.33,240.21Z"/><path class="cls-7" d="M26.67,442.67h-16a10.67,10.67,0,0,0,0,21.33h16a10.67,10.67,0,0,0,0-21.33Z"/><path class="cls-7" d="M501.33,442.67h-16a10.67,10.67,0,0,0,0,21.33h16a10.67,10.67,0,0,0,0-21.33Z"/><path class="cls-7" d="M112,442.67H64A10.67,10.67,0,0,0,64,464h48a10.67,10.67,0,0,0,0-21.33Z"/><path class="cls-7" d="M448,464a10.67,10.67,0,0,0,0-21.33H365.22A47.72,47.72,0,0,0,373.33,416V346.67h48A26.7,26.7,0,0,0,448,320V266.67a16,16,0,0,0,16-16v-32a16,16,0,0,0-16-16H414.17a32,32,0,0,0-40.83-40.83V96a48.05,48.05,0,0,0-48-48H186.67a48.05,48.05,0,0,0-48,48v80.21a10.67,10.67,0,1,0,21.33,0V144H352v17.84a32,32,0,0,0-40.83,40.83H277.33a16,16,0,0,0-16,16v32a16,16,0,0,0,16,16V320A26.7,26.7,0,0,0,304,346.67h48V368H160V266.45a10.67,10.67,0,1,0-21.33,0V416a48.05,48.05,0,0,0,48,48ZM186.67,442.67A26.7,26.7,0,0,1,160,416V389.33H352V416a26.7,26.7,0,0,1-26.67,26.67Zm256-197.33h-48V224h48Zm-90.67,80V266.67h21.33v58.67Zm0-80V224h21.33v21.33Zm32-64a10.67,10.67,0,1,1,0,21.33H373.33V192A10.68,10.68,0,0,1,384,181.33Zm-197.33-112H325.33A26.7,26.7,0,0,1,352,96v26.67H160V96A26.7,26.7,0,0,1,186.67,69.33ZM330.67,192A10.67,10.67,0,1,1,352,192v10.67H341.33A10.68,10.68,0,0,1,330.67,192Zm-48,32h48v21.33h-48Zm16,96V266.67h32v58.67H304A5.34,5.34,0,0,1,298.67,320Zm128,0a5.34,5.34,0,0,1-5.33,5.33H394.67V266.67h32Z"/><path class="cls-7" d="M245.33,106.67h21.33a10.67,10.67,0,1,0,0-21.33H245.33a10.67,10.67,0,1,0,0,21.33Z"/><circle class="cls-7" cx="256" cy="416" r="10.67"/></svg>