<svg id="Layer_1" data-name="Layer 1" xmlns="http://www.w3.org/2000/svg" viewBox="0 0 512 512"><title>santa</title><path d="M422.19,262c0,54.79-40.7,99.19-90.9,99.19s-90.9-44.4-90.9-99.19,40.7-99.19,90.9-99.19S422.19,207.2,422.19,262Z" fill="#f7ddc4"/><path d="M220.53,317.61c-19.48-12.64-45.93,39-5.73,49.4v1.14c-27.56,8.05-12.64,51.68,13.81,50.54-10.35,28.7,18.38,71.19,50.5,51.67-1.1,17.24,25.29,37.9,28.74,13.78,14.92,32.16,57.41,32.16,56.24-8,24.11,28.71,70.05-13.78,45.94-40.17,20.72,9.16,42.49-16.1,24.11-32.19,15,0,31-25.25,11.54-32.16,37.87,3.46,8-51.67-8.07-60.86-16-8-41.32-16.06-60.87-19.52-41.32-8-83.8-1.14-124,10.36Z" fill="#fef9f0"/><path d="M222.08,314.93c-12.22-7.34-22.08,5.7-27,15.54-3,5.92-4.63,14.06-3.08,20.56.8,3.51,1.9,7.06,4.3,9.87,1.12,1.3,15.24,12.06,15.79,9.9,1.6-2.41,3.15-4.81,4.82-7.22-16.35,5.73-22.7,23-17.83,38.94a30.12,30.12,0,0,0,23.87,20.72c3.7.58,1,6.2.62,9.41-.62,6.2.91,12.64,2.71,18.5a42.82,42.82,0,0,0,25.78,27.63c5.66,2.09,12,1.27,17.63-.28,7.34-1.95,5.74-2.07,8.26,5.34,2.89,8.47,12.7,18.22,22.2,15.26,6.53-2.07,9.31-12,10.54-17.7L305,488.45c8,15.64,24.3,28.49,42.49,21.68,14.49-5.46,19.55-24,19.67-37.74-1.86,2.84-3.77,5.64-5.61,8.48,28.3,30.19,75.1-20.35,51.24-49.85-1.78,3.24-3.58,6.5-5.42,9.77,24.23,8.35,48.53-22.26,29.6-42-1.67,3.33-3.34,6.66-5,10,17.2-1.85,38.17-32.06,16.53-42.21-1.66,3.36-3.39,6.72-5.06,10.08,17.71.84,25.84-13.81,23.06-30.06-1.84-10.45-7.89-21.12-14.36-29.41-9.8-12.63-23.31-17.3-38.17-22.5-44.33-15.51-90.28-14.49-135.67-4.41-7.65,1.69-17.21,3-24.18,6.56-3.51,1.73-2.77,2.72-4.81,3.83-9.36,5.12-18.63,10.66-28.19,15.45-.74.37-2,3.52-1,3,47.66-23.83,106.07-31.66,158.37-21.7,21.76,4.13,51.42,10,66.34,27.68,6.24,7.4,10.79,16.37,14,25.44,4.2,11.74,1.73,16.56-10.85,16-2.22-.09-7.23,9.07-5,10.08,14.06,6.6,7.09,20.63-6.47,22.11-2.47.28-7,8-5,10,14.32,14.89-2.78,27.69-18.69,22.29-2.65-.93-7,7.77-5.42,9.77,21.4,26.27-19.36,53-40.58,30.56-1.66-1.76-5.61,7.21-5.67,8.44-.37,39.62-40.28,19.58-50.32,0-1.29-2.56-5.54,6-5.8,7.06-1.73,7.89-11.17.89-14.18-1.54-5.49-4.5-8.51-11.65-8.7-18.62,0-1.08-.55-1.3-1.42-.8-30.4,16.31-58.28-19.92-49.51-48.9.24-.8,1-3-.45-3-17.57-.4-42.48-32.09-17.94-41.28,1.91-.7,6.29-6.59,4.87-8.73l-.3-.06A1,1,0,0,0,217,363c-10.11-3-17.82-8.14-20.48-18.81-3.2-12.83,8.64-30.56,22.51-23.93C220.35,320.91,223.25,315.64,222.08,314.93Z" fill="#333"/><path d="M221.71,214.53c-27.57,32.56,10.35,119.88,29.84,60.68,4.63-11.84,8.08-57.72,3.45-71-5.73-16.28-20.65-19.24-28.67-1.48Z" fill="#fef9f0"/><path d="M221.71,213.39c-14.62,18-14.07,43.48-6.85,64.54,2.77,8,8.08,18.89,17.14,21,8,1.88,13.94-8.32,17.09-13.93,12.27-22.42,13.13-56.09,9.44-80.6-1.61-10.55-13.63-24.76-24.43-14.71-7.71,7.18-10.11,15.85-13.31,25.47-.81,2.28,1.29.09,1.72-.77,3.09-7.15,5.61-16.74,14.37-19.4,12.51-3.76,16.77,16.16,17.45,24.33,1.42,18,1,40.05-4.87,57.29-8.09,23.65-22,13.57-29.24-2.9-7.51-16.93-10.29-42.4,1.49-58C222.26,214.9,223.38,211.39,221.71,213.39Z" fill="#333"/><path d="M410.66,196.4c-3.64,16.25-7.4,38.39-6.53,56.15,1.91,29.63,22,71.35,35.26,25.65,4.87-19.15,6.61-59.11-1.16-78.44-3.33-8.95-21.46-26.95-21.71-9.19Z" fill="#fef9f0"/><path d="M409.67,197.42c-8.57,31.2-14.3,68.57,3.58,97.73,13.5,22.17,26.88-11.31,29.47-22.5,5.62-24,9.31-63.05-5.92-84.27-4-5.61-11.83-13.87-18.26-7.46a13.77,13.77,0,0,0-3.58,6.54c-1,4.65.32,2.81-4.24,7.87-.43.46-1.73,3.7-.31,2.46,8.08-7.31,9.07-12.71,18.86-2.87,14.32,14.46,12,42.18,11,60.68-.49,8.54-2.52,41.25-15.11,38.17-7.77-1.92-11.84-15.6-14.12-22-8.56-24.69-3.27-51.25.62-76.32C412,193.47,409.78,196.77,409.67,197.42Z" fill="#333"/><path d="M445.68,154.53c3.45-40.21-36.76-97.62-66.6-119.45C327.34-1.68,258.46-.53,199.88,21.3,143.65,42,102.26,87.93,87.33,147.62c-6.9,28.74,6.92,42.5,24.11,12.64,12.65-21.83,32.2-44.8,57.41-52.82,20.72-5.76,50.57-3.46,60.87,17.2,11.53,25.28-14.93,37.93-14.93,59.73,1.18,34.47,136.72,5.74,160.83,3.45,14.92-1.14,70,0,66.6-24.11Z" fill="#e9573f"/><path d="M447.66,152.07c2.72-35-16.41-67.41-37.19-94.08C386,26.54,351.7,8.59,312.61,2.39,241.32-9,160.23,20.56,117.43,79.51,99.61,104,80.93,138,82.22,169.27c.3,6.91,5.24,17.12,13.62,11.9,14.38-8.88,21.09-27.44,31.45-40.14,13.76-16.9,32.13-28.43,53.9-30.43,18.75-1.76,39.4,4.66,46.62,23.4,7.47,19.48-31.13,47.38-11.59,65.09,13.13,11.9,42,8.23,57.78,7.31,25.59-1.51,51-5.49,76.29-9.5,18.37-2.9,36.57-3.4,54.94-5.55,17.94-2.1,38.48-8.73,40.52-29.42a1.22,1.22,0,0,0-.38-1.17c-1.42-.28.06-3.7,1.23-6.85.92-2.4-1.53.31-1.9,1.24-3.76,10-5.31,17.17-16,21-12.46,4.5-26.64,4.78-39.78,5.42-19.05.9-37.67,4.62-56.54,7.4-26.7,3.92-54,7.46-81,6.2-9.31-.4-19.49-1.63-27.5-6.66-13.75-8.57,2.15-26.52,6.91-36.29,12.82-26.7-3-51.25-32.8-52.95-35.27-2-60.62,19.77-80.11,47.05-5.24,7.43-13,27.66-23.67,24.67-8.7-2.47-4.63-21.33-3.58-26.54,4.94-24.08,17.75-47,33.05-66,27-33.54,66.61-52.2,107.86-61.63,49.57-11.32,105.76-5.52,147.2,25.75,32.07,24.23,66,72.58,64.87,114.39C443.59,159.09,447.53,153.61,447.66,152.07Z" fill="#333"/><path d="M430.76,211.94c11.47-1.14,25.22-2.28,33.29-12.64,10.3-16.07-3.45-50.51-25.28-37.9,17.21-21.82-50.56-43.62-43.65-4.59-8-14.92-37.88-17.23-37.88,4.59-1.16-21.82-39.09-24.11-39.09,2.31-11.48-18.38-57.41-23-49.33,8C263.08,158,219.43,152.22,224,174c-11.46-21.82-48.23,16.07-21.82,27.57-27.56,10.33,3.45,28.71,23,17.24,4.57,19.51,33.31,13.78,40.22-1.17,17.2,19.55,35.58,3.45,50.5-8,12.64,16.07,32.19,25.26,42.49-1.17,2.29,17.24,31,23,35.65,3.45,1.11,16.1,24.11,13.79,31,4.6Z" fill="#fef9f0"/><path d="M429.77,214.13c17.45-.61,37.24-5.76,39.71-26,2.15-17.86-8.82-40.51-29.36-30.74-.23,1.94-.49,3.85-.74,5.8,21.53-31.14-52.66-49.71-47-3.05,1.78-2.44,3.58-4.88,5.36-7.31-13.8-21.46-41.43-11.38-43.28,11.9,1.79-2.44,3.64-4.88,5.42-7.34-1.84-14-15.6-19.89-28.3-16-10.61,3.27-15.54,15.69-16.16,25.66,1.79-2.47,3.64-4.94,5.42-7.4-16.89-23.75-61.79-18.2-54.76,16,1.79-2.65,3.58-5.33,5.37-8-10.55-19.33-53.59-17.45-50.27,9.68,1.86-2.47,3.64-4.94,5.5-7.4-14.68-23-54.39,21.64-27,36q2.23-4.45,4.45-8.88c-6.84,3.05-14.43,7.78-15.48,16-1.48,11.84,14.87,14,23.43,13.62,7.59-.28,7.71-4,13.07,2.34,4.33,5,9.26,6.47,15.66,6.63,11.29.25,20.66-8.14,25.85-17.33-1.29,1.23-2.52,2.43-3.83,3.67,8.39,8.17,17.95,12,29.11,6.63a91.71,91.71,0,0,0,15.35-9.41c7.78-5.67,10.43.25,16.6,5.09,16.65,13.07,29.72-1.45,36.44-16.37-1.6,1.52-3.2,3-4.74,4.53,2.59,11.59,13.25,17.36,24.66,15.72,8.68-1.23,13.69-10.58,16.15-18-1.79,1.91-3.52,3.82-5.3,5.73,2.1,11.66,12.64,13.69,22.81,11,7.4-2,11.16-8.73,16.41-13.63.48-.4,2-3.88.91-3.17-10.35,6.75-31.08,16.8-34.54-2.44-.43-2.19-5.05,5.06-5.23,5.74-5.37,16.22-28.12.89-30.4-9.16-.49-2.16-4.57,4.16-4.74,4.56-9.87,22-28.3,7.89-38.05-3.76a1.16,1.16,0,0,0-1.06.24c-15.66,12.15-32.23,24.61-49.44,7.8-1.05-1-3.58,3.21-3.89,3.7-8,14.06-31,13.07-36.07-2.16-.19-.71-.86-.37-1.3-.15-7.09,3.46-13.19,3.95-20.85,2.44-6.34-1.24-16.28-6.2-5.54-11,1.48-.65,6.84-7.58,4.43-8.85-21.15-11,5.5-36.63,16.72-19.15,1.36,2.16,5.68-5.8,5.42-7.4-1.73-14.09,34.35-4.07,39.34,5.09,1.18,2.16,5.8-6,5.37-8-5.18-25.28,36-11.31,44,0,1.66,2.34,5.36-6,5.43-7.4,1.41-21.24,31.57-10.27,33.6,5.06.25,1.6,5.3-5.52,5.43-7.34,1.42-17.82,27.68-4.66,32.49,2.75,1.48,2.28,5.56-6.2,5.29-7.92-4.25-30.06,48.54-5.21,40.4,6.72-.49.68-3.64,7.25-.75,5.83,12.71-6.23,21.65,1.79,26.09,13.53,8.51,22.48-15.29,28.12-31.82,30.8C430.57,210,428.66,214.16,429.77,214.13Z" fill="#333"/><path d="M330.79,297.5c2.35-19.52-22.93-29.85-39-28.7-31,3.45-68.88,33.3-95.33,1.14h0c-9.19,77,142.44,75.81,129.8,35.61Z" fill="#fef9f0"/><path d="M332,296.33c3.93-25.47-25.72-34.75-46.14-30.68-30,6-61.36,27.93-86.89-.4-1.6-1.78-5.43,7.25-5.54,8.33-7.72,79.8,147.56,78.29,136.09,29.11-.11-.12-.17-.24-.3-.4-.8-.15.86-2.07,2.1-4.44.8-1.48.49-3.18-.8-1.11-5.13,8.23-5.68,19.61-13.82,24-13.57,7.43-31.64,7.52-46.62,6.47-34.1-2.37-74.38-21-70.67-60.93-1.91,2.78-3.76,5.55-5.61,8.32,20.59,22.48,46.37,13.44,71.65,4.88,21.83-7.4,59.08-11.14,64.07,19.85C329.75,300.21,332,296.92,332,296.33Z" fill="#333"/><path d="M330.79,301c-3.45-21.83,20.73-34.47,40.22-34.47,24.11,0,27.56,16.09,45.94,25.28,16.1,8.05,36.75,3.46,52.85-3.45-18.39,23-41.38,44.8-72.39,45.94-19.49,0-58.53-9.19-65.43-29.85" fill="#fdf8f3"/><path d="M332,299.54c1-21.7,19.66-27.94,37-28.49,12.33-.37,21.21,6.2,29.73,14.12,20.65,19.18,43.47,18.47,68.81,8.3.74-2.84,1.55-5.64,2.36-8.45-18.39,22.57-41.94,44.83-73.09,44.15-20.52-.46-52.59-8.2-62-28.93-.8-1.78-6.55,5.83-5.55,8.3,8.82,23.22,41,29.38,63.08,30.68,32.32,1.95,58.77-24.57,77.46-47.57.49-.62,4.69-9.4,2.36-8.45-19.87,8-40.58,11.65-59.45-.65-14.19-9.22-21.27-19.89-39.59-20.6-19.86-.8-49.7,17.42-43.35,40.67.25.83,2.22-2.44,2.28-3.08Z" fill="#333"/><path d="M348.07,296.92a19,19,0,1,1-19-18.93A19,19,0,0,1,348.07,296.92Z" fill="#e9573f"/><path d="M345.41,300.18c-.6,10.27-11.72,12.83-20,10.55-7.58-2.09-12.2-9.56-12.63-17-.56-10.46,12.45-12.62,20-10.55s12.2,9.59,12.63,17.05c.14,2.84,5.44-4.28,5.31-6.5-.74-13.57-12.4-22.63-25.71-19-10.55,2.9-17,15.33-17.52,25.47-.74,13.82,13.45,22.36,25.71,19,10.55-2.89,17-15.32,17.51-25.46C350.85,291.06,345.48,298,345.41,300.18Z" fill="#333"/><path d="M268.7,254.62c8-23.9,30.34-8.91,37.56,6.62.68,1.51,6.1-5.12,4.93-7.27-5.48-10-14.56-20.13-26.88-19.39-10.24.58-16.22,13.29-17.82,21.89-.43,2.13,2-1.2,2.22-1.84Z" fill="#333"/><path d="M346.52,258.53c3.77-9.43,10-16.12,20.78-15,8.33.89,14.69,7.55,18.26,14.64.87,1.7,6.54-5.67,5.36-8-5.41-10.33-15.35-17.32-27.3-14.4-10.3,2.5-17.89,14.34-19.42,24.27-.38,2.34,2.09-.87,2.34-1.51Z" fill="#333"/><path d="M118.36,194.7c29.84-8,0-55.12-16.1-34.44,4.63-14.92-22.94-21.83-34.48-18.38C54,146.48,44.85,174,64.4,177.5c-23-4.59-33.31,28.71-4.63,31-4.57,24.14,23,23,29.85,3.45,3.45,31,48.28,3.45,31-13.78" fill="#fef9f0"/><path d="M117.13,197.45c13.44-3.58,18.62-17.24,14.62-29.85-2.34-7.52-8.75-14.73-16.59-16.4-3-.65-5.68.53-8.2,1.94-4.13,2.31-1.42,3.92-1.66-1-.86-18.81-35-18-44.59-8.27-10.18,10.36-16.83,32.59,1.23,38.11,1.61-3,3.27-5.92,4.94-8.91-18-2.46-38.68,22.85-20.79,36.51,1.42,1.08,10.79,3.2,10.54,5a25.61,25.61,0,0,0,.31,7.22c.86,5.58,5.93,8.66,11,9.25,11.41,1.35,19.8-10.42,23.61-19.49-1.54,1.48-3.07,3-4.68,4.47,5.54,33.7,54.94-1.23,36.19-22.23-.92-1.08-6.78,6.63-4.93,8.85,8,9.49-1.66,17-11.16,18.78-9,1.73-13.39-5.86-14.67-13.47-.32-2.1-4.5,4.07-4.69,4.47-6.79,16.07-27.45,10.95-25.16-6.47.05-.21.37-1.76-.25-1.85-6.28-.84-11.84-2.38-15.53-7.87-7.22-10.66,7.52-15.29,15.22-14.24,2.72.37,6.48-8.57,4.94-8.91-16.66-3.58-12-25.75,3.63-27.6,9.43-1.13,31.76,3.73,29.24,17.24-.49,2.65,1.42,1.55,2.46.31,13-14.68,40.76,19.7,17.39,29-1.42.55-3.51,5.73-2.46,5.46Z" fill="#333"/><path d="M132.53,83.7C157,62.77,186.74,47.32,216.71,36c26.27-9.93,60.8-19,86.83-4,.8-1.88,1.67-3.79,2.52-5.68-18.8,9.78-39.84,14.34-57.41,26.52-.74.55-4.32,5.95-2.34,6,33.31,1.2,65.06-11.38,98.42-10.11.67-2,1.29-3.92,2-5.89C330.18,60,304.41,64.37,282,68.88c-1.66.31-4.81,6.6-3,6.66,34.1,1.27,72.46-16.09,104.15,2.31,1.05-2.34,2.1-4.66,3.16-7C349.72,89.94,301,80,270.92,112.17c-.63.62-4.74,7-2.34,6.94,45-.77,87.63-18.5,132.77-7.93,2.58.62,6-7.86,4.55-8.2-45.32-10.64-88.66,7.68-133.93,8.51-.8,2.31-1.61,4.62-2.34,6.94C298.91,87.07,348.19,96.53,384,77.66c1-.55,4.88-6,3.16-7-32.26-18.4-70.68-.58-105.15-1.78-1,2.22-2,4.44-3,6.66,23.37-4.69,49.46-9.5,66.6-27.34.56-.56,4.06-5.83,2-5.89-33.43-1-65.25,11.59-98.54,10.39-.81,2-1.6,4-2.41,6,17.57-12.18,38.73-16.93,57.54-26.83.86-.46,3.95-4.87,2.52-5.68-28-15.87-64-4.5-91.7,6.35-29.41,11.5-58.14,27.9-82,48.66-.49.46-1.78,3.6-.49,2.5Z" fill="#fef9f0"/></svg>